<?xml version="1.0" encoding="utf-8"?>
<!-- Generator: Adobe Illustrator 16.0.0, SVG Export Plug-In . SVG Version: 6.00 Build 0)  -->
<!DOCTYPE svg PUBLIC "-//W3C//DTD SVG 1.1//EN" "http://www.w3.org/Graphics/SVG/1.1/DTD/svg11.dtd">
<svg version="1.1" id="Livello_1" xmlns="http://www.w3.org/2000/svg" xmlns:xlink="http://www.w3.org/1999/xlink" x="0px" y="0px"
	 width="269.29px" height="269.29px" viewBox="0 0 269.29 269.29" enable-background="new 0 0 269.29 269.29" xml:space="preserve">
<circle fill="#85D0F5" cx="134.79" cy="135.292" r="132.5"/>
<g>
	<path fill-rule="evenodd" clip-rule="evenodd" fill="#03589C" d="M154.652,239.792c-1.47-0.77-3.094-1.343-4.377-2.351
		c-2.344-1.837-3.317-4.458-3.351-7.414c-0.024-2.107-0.003-4.215-0.007-6.323c-0.006-2.502-1.08-4.363-3.379-5.416
		c-2.156-0.988-4.31-1.998-6.525-2.838c-2.457-0.931-4.752-0.671-6.682,1.357c-1.452,1.525-2.973,2.984-4.479,4.456
		c-3.814,3.727-9.153,4.105-13.155,0.583c-3.235-2.849-6.176-6.038-9.175-9.146c-3.312-3.433-3.685-9.498,0.927-13.742
		c1.428-1.313,2.832-2.664,4.144-4.092c1.614-1.756,2.196-3.844,1.344-6.141c-0.806-2.173-1.732-4.302-2.623-6.443
		c-1.12-2.694-3.225-3.966-6.067-4.049c-2.106-0.061-4.216,0.015-6.323-0.022c-5.493-0.097-9.274-3.83-9.351-9.293
		c-0.057-4.053-0.055-8.107,0.002-12.16c0.072-5.104,3.815-9.004,8.934-9.285c2.263-0.124,4.539-0.077,6.808-0.043
		c2.798,0.042,4.764-1.228,5.891-3.731c0.974-2.162,1.877-4.361,2.703-6.584c0.872-2.347,0.339-4.469-1.385-6.266
		c-1.309-1.364-2.663-2.686-3.998-4.023c-4.534-4.543-4.81-9.605-0.502-14.317c2.833-3.099,5.883-6.016,8.997-8.836
		c3.247-2.942,8.604-2.854,11.895,0.071c1.854,1.649,3.559,3.465,5.334,5.203c1.94,1.899,4.197,2.335,6.704,1.359
		c2.01-0.783,4.002-1.614,5.982-2.469c2.642-1.139,4.047-3.105,3.988-6.056c-0.041-2.053-0.044-4.108,0.004-6.161
		c0.133-5.638,4.061-9.513,9.689-9.555c3.837-0.029,7.674-0.031,11.511-0.001c5.775,0.044,9.496,3.765,9.582,9.559
		c0.029,1.999-0.021,4,0.016,5.999c0.056,2.916,1.337,5.055,4.087,6.21c1.989,0.835,3.974,1.684,5.976,2.487
		c2.56,1.028,4.996,0.427,6.94-1.581c1.5-1.549,3.102-3,4.591-4.56c3.059-3.205,9.182-3.919,13.409,0.272
		c2.761,2.738,5.568,5.435,8.226,8.271c3.741,3.993,3.687,9.402-0.037,13.404c-1.472,1.581-3.001,3.109-4.551,4.612
		c-2.038,1.976-2.382,4.303-1.396,6.836c0.861,2.208,1.853,4.367,2.844,6.521c0.998,2.169,2.767,3.25,5.129,3.31
		c1.944,0.048,3.891,0.008,5.837,0.014c5.243,0.015,8.195,2.027,10.157,6.908c0.074,0.185,0.231,0.336,0.35,0.503
		c0,5.296,0,10.593,0,15.89c-0.134,0.288-0.292,0.567-0.399,0.865c-1.589,4.39-4.651,6.582-9.313,6.632
		c-1.999,0.021-3.999-0.038-5.997,0.017c-2.688,0.074-4.801,1.142-5.938,3.718c-0.827,1.874-1.641,3.754-2.45,5.635
		c-1.292,3-0.873,5.329,1.398,7.694c1.645,1.711,3.396,3.33,4.944,5.123c2.805,3.247,3.146,8.102,0.378,11.325
		c-3.149,3.666-6.535,7.196-10.205,10.331c-3.946,3.371-8.801,2.89-12.589-0.669c-1.573-1.479-3.063-3.046-4.593-4.57
		c-1.928-1.922-4.206-2.354-6.7-1.403c-2.113,0.806-4.171,1.757-6.251,2.651c-2.718,1.167-3.806,3.364-3.849,6.187
		c-0.033,2.215,0.018,4.432-0.039,6.645c-0.055,2.118-0.604,4.171-2.262,5.536c-1.583,1.304-3.46,2.251-5.208,3.356
		C165.029,239.792,159.841,239.792,154.652,239.792z M134.777,162.759c-0.051,15.219,12.305,27.655,27.524,27.704
		c15.2,0.048,27.628-12.329,27.659-27.547c0.031-15.202-12.391-27.645-27.59-27.637C147.252,135.287,134.83,147.658,134.777,162.759
		z"/>
	<path fill-rule="evenodd" clip-rule="evenodd" fill="#03589C" d="M80.717,36.792c3.732,1.459,5.189,4.232,4.918,8.16
		c-0.155,2.24,2.479,4.466,4.729,4.154c0.383-0.053,0.779-0.327,1.08-0.598c0.68-0.613,1.298-1.294,1.951-1.938
		c2.708-2.67,6.555-2.66,9.259,0.027c1.34,1.331,2.676,2.666,4,4.013c2.459,2.501,2.537,6.139,0.191,8.756
		c-0.432,0.482-0.896,0.935-1.351,1.397c-1.691,1.717-1.615,4.722,0.235,6.307c0.361,0.309,0.981,0.396,1.493,0.432
		c1.022,0.073,2.054-0.006,3.077,0.06c3.397,0.218,5.955,2.825,6.056,6.213c0.06,1.998,0.053,3.999,0.002,5.997
		c-0.089,3.495-2.651,6.108-6.129,6.311c-0.431,0.025-0.864,0.021-1.296,0.022c-3.351,0.015-3.949,0.408-4.741,3.711
		c-0.163,0.678,0.21,1.632,0.629,2.265c0.586,0.887,1.489,1.556,2.181,2.382c2.219,2.647,2.043,6.163-0.403,8.632
		c-1.329,1.341-2.667,2.673-4.005,4.005c-2.493,2.482-6.105,2.617-8.754,0.308c-0.731-0.638-1.49-1.269-2.101-2.015
		c-0.787-0.962-1.668-1.08-2.729-0.637c-0.647,0.27-1.285,0.561-1.937,0.82c-1.015,0.404-1.545,1.078-1.479,2.23
		c0.059,1.022,0.04,2.055-0.026,3.078c-0.211,3.271-2.847,5.855-6.132,5.967c-1.997,0.068-3.998,0.053-5.996,0.012
		c-3.582-0.073-6.213-2.647-6.394-6.223c-0.043-0.862-0.08-1.734-0.008-2.592c0.112-1.338-0.472-2.059-1.697-2.57
		c-3.215-1.341-3.196-1.386-5.671,1.074c-3.333,3.313-6.642,3.374-10.024,0.152c-1.211-1.153-2.372-2.359-3.548-3.548
		c-2.599-2.628-2.707-6.324-0.257-9.027c0.542-0.599,1.06-1.258,1.711-1.713c1.383-0.965,1.204-2.113,0.644-3.415
		c-1.24-2.883-1.231-3.001-4.39-2.866c-3.755,0.161-6.14-1.552-7.516-4.917c0-3.027,0-6.053,0-9.08
		c1.008-1.205,1.798-2.814,3.082-3.508c1.467-0.792,3.374-1.021,5.092-1.032c1.781-0.012,2.875-0.532,3.393-2.235
		c0.155-0.513,0.599-1.003,0.578-1.489c-0.034-0.773-0.17-1.652-0.583-2.272c-0.619-0.928-1.571-1.625-2.286-2.499
		c-2.145-2.624-1.954-6.077,0.429-8.498c1.399-1.421,2.784-2.858,4.23-4.23c1.838-1.743,4.07-2.402,6.392-1.356
		c1.473,0.664,2.846,1.764,3.961,2.952c1.128,1.204,2.164,1.397,3.555,0.727c1.538-0.741,3.256-1.184,2.937-3.578
		c-0.25-1.869-0.245-3.892,1.064-5.416c0.976-1.136,2.323-1.953,3.504-2.913C74.664,36.792,77.69,36.792,80.717,36.792z
		 M64.131,76.638c-0.128,6.668,5.222,12.194,11.968,12.364c6.721,0.169,12.312-5.284,12.4-12.094
		c0.086-6.661-5.339-12.186-12.054-12.275C69.769,64.543,64.261,69.914,64.131,76.638z"/>
</g>
<g>
</g>
<g>
</g>
<g>
</g>
<g>
</g>
<g>
</g>
<g>
</g>
</svg>
