<?xml version="1.0" encoding="utf-8"?>
<!-- Generator: Adobe Illustrator 16.0.0, SVG Export Plug-In . SVG Version: 6.00 Build 0)  -->
<!DOCTYPE svg PUBLIC "-//W3C//DTD SVG 1.1//EN" "http://www.w3.org/Graphics/SVG/1.1/DTD/svg11.dtd">
<svg version="1.1" id="Livello_1" xmlns="http://www.w3.org/2000/svg" xmlns:xlink="http://www.w3.org/1999/xlink" x="0px" y="0px"
	 width="532.91px" height="235.28px" viewBox="0 0 532.91 235.28" enable-background="new 0 0 532.91 235.28" xml:space="preserve">
<g>
	<path fill="#428DCC" stroke="#334294" stroke-width="11" stroke-miterlimit="10" d="M495.013,35.57H201.058
		c-0.568,0-1.122,0.057-1.667,0.14c-18.408-15.083-41.946-24.135-67.6-24.135c-58.951,0-106.74,47.79-106.74,106.74
		c0,58.95,47.789,106.739,106.74,106.739c28.15,0,53.75-10.901,72.821-28.709h290.4c6.098,0,11.043-4.942,11.043-11.042V46.613
		C506.056,40.515,501.11,35.57,495.013,35.57z"/>
	<path fill="#F8B16B" stroke="#334294" stroke-width="3" stroke-miterlimit="10" d="M80.309,196.353l84.178-90.531
		c-19.156,2.896-37.17-7.989-40.226-28.802L57.309,180.94c0,0,0.684,7.567,6.384,12.276C67.115,196.042,72.34,197.84,80.309,196.353
		z"/>
	<path fill="#F8B16B" stroke="#00983A" stroke-width="3" stroke-miterlimit="10" d="M83.9,30.253"/>

		<ellipse transform="matrix(-0.6311 0.7757 -0.7757 -0.6311 316.1876 -14.5152)" fill="#C6C6C6" stroke="#334294" stroke-width="3" stroke-miterlimit="10" cx="161.545" cy="67.93" rx="35.073" ry="30.856"/>
	<g>
		<path fill="#FFFFFF" stroke="#334294" stroke-width="3" stroke-miterlimit="10" d="M255.151,152.55
			c0.267-8.57,0.414-13.677,0.444-15.317c0.207-6.793-0.34-16.571-1.642-29.336c-5.148,14.68-8.699,29.177-10.651,43.49
			l-7.855-0.342c-2.071-7.84-4.897-16.365-8.477-25.574c-1.509-3.829-3.107-7.635-4.793-11.42
			c-0.503,8.845-0.533,17.142-0.089,24.891l1.42,25.096l-19.883-3.897c2.958-11.396,4.705-18.212,5.237-20.446
			c2.16-8.296,4.334-21.174,6.524-38.635l-10.074-17.711l17.442-15.112c2.189,12.218,3.506,19.512,3.95,21.882
			c1.805,9.938,5.754,24.367,11.85,43.285c3.432-17.916,5.429-31.478,5.991-40.687l1.243-21.198l18.818,10.462l-4.527,10.941
			c0.502,4.559,1.523,11.055,3.062,19.488c1.568,8.571,2.84,14.52,3.817,17.847c1.953,6.474,3.964,13.449,6.036,20.925
			l-17.974,5.061L255.151,152.55z"/>
		<path fill="#FFFFFF" stroke="#334294" stroke-width="3" stroke-miterlimit="10" d="M274.901,100.443
			c3.225,0.776,5.873,1.094,7.944,0.958c2.426-0.318,4.852-0.638,7.278-0.958c-1.125,24.664-1.894,43.241-2.308,55.731l-8.122,1.436
			C278.008,132.218,276.41,113.162,274.901,100.443z M274.901,100.443c3.225,0.776,5.873,1.094,7.944,0.958
			c2.426-0.318,4.852-0.638,7.278-0.958c-1.125,24.664-1.894,43.241-2.308,55.731l-8.122,1.436
			C278.008,132.218,276.41,113.162,274.901,100.443z M287.816,75.005c0,6.109-1.761,9.004-5.281,8.685
			c-3.167-0.274-4.749-3.327-4.749-9.163c0-6.702,1.627-10.052,4.882-10.052C286.1,64.475,287.816,67.986,287.816,75.005z"/>
		<path fill="#FFFFFF" stroke="#334294" stroke-width="3" stroke-miterlimit="10" d="M363.175,109.059
			c0,1.915-0.133,3.761-0.399,5.539c-0.917,6.427-3.21,11.556-6.879,15.385c-3.669,3.83-8.048,5.995-13.137,6.496
			c0.769,7.796,1.612,15.478,2.529,23.045h-20.858c2.277-12.673,3.639-20.241,4.083-22.703c1.42-8.022,2.633-20.012,3.639-35.968
			c-2.929,3.602-4.631,5.881-5.104,6.838l-8.921-27.694c0.504-0.684,2.508-1.846,6.014-3.487s6.635-2.575,9.387-2.804
			c2.396-0.182,5.237,0.342,8.521,1.573c8.758,3.282,14.985,9.847,18.685,19.694C362.361,99.349,363.175,104.045,363.175,109.059z
			 M354.388,110.7c0-1.048-0.089-2.074-0.267-3.077c-0.592-3.146-1.938-5.801-4.038-7.966c-2.102-2.165-4.438-3.316-7.013-3.453
			c-0.917-0.045-1.687-0.045-2.308,0c-0.237,10.166,0,19.625,0.71,28.378c2.604-0.138,5.015-0.912,7.234-2.325
			C352.494,119.887,354.388,116.034,354.388,110.7z"/>
		<path fill="#FFFFFF" stroke="#334294" stroke-width="3" stroke-miterlimit="10" d="M365.306,100.443
			c3.225,0.776,5.873,1.094,7.944,0.958c2.426-0.318,4.852-0.638,7.278-0.958c-1.125,24.664-1.894,43.241-2.308,55.731l-8.122,1.436
			C368.412,132.218,366.814,113.162,365.306,100.443z M365.306,100.443c3.225,0.776,5.873,1.094,7.944,0.958
			c2.426-0.318,4.852-0.638,7.278-0.958c-1.125,24.664-1.894,43.241-2.308,55.731l-8.122,1.436
			C368.412,132.218,366.814,113.162,365.306,100.443z M378.221,75.005c0,6.109-1.761,9.004-5.281,8.685
			c-3.167-0.274-4.749-3.327-4.749-9.163c0-6.702,1.627-10.052,4.882-10.052C376.504,64.475,378.221,67.986,378.221,75.005z"/>
		<path fill="#FFFFFF" stroke="#334294" stroke-width="3" stroke-miterlimit="10" d="M416.743,133.744
			c-0.03,9.574,0.783,18.099,2.44,25.575l-8.166,2.872c0.089-1.46,0.147-4.264,0.178-8.411c-2.752,3.191-6.568,4.787-11.45,4.787
			c-11.303,0-16.954-6.245-16.954-18.737c0-6.609,1.568-12.103,4.705-16.479c3.047-4.33,6.745-6.496,11.095-6.496
			c5.03,0,9.113,2.303,12.249,6.906c-0.148-4.011-0.281-6.724-0.399-8.137c-0.474-5.652-2.13-8.479-4.971-8.479
			c-0.77,0-1.657,0.183-2.662,0.547c-3.196,1.186-6.82,3.214-10.874,6.086c-3.166,2.28-4.956,3.739-5.37,4.376l-4.66-20.651
			c0.118-0.274,2.026-0.821,5.726-1.641c4.053-0.866,7.723-1.436,11.007-1.71c3.728-0.273,6.76,0.046,9.098,0.958
			c1.745,0.73,3.388,2.188,4.927,4.376c1.538,2.188,2.603,4.605,3.195,7.249c0.65,3.101,0.961,7.932,0.932,14.496
			C416.758,129.71,416.743,133.882,416.743,133.744z M409.42,133.676c0-3.189-0.784-5.675-2.353-7.453
			c-1.42-1.641-3.195-2.462-5.325-2.462c-2.013,0-3.735,0.901-5.171,2.701c-1.436,1.802-2.152,4.093-2.152,6.872
			c0,5.197,2.619,7.796,7.855,7.796C407.038,141.13,409.42,138.646,409.42,133.676z"/>
		<path fill="#FFFFFF" stroke="#334294" stroke-width="3" stroke-miterlimit="10" d="M451.805,152.275
			c-0.858,1.551-2.204,3.009-4.039,4.377c-2.248,1.686-4.497,2.53-6.745,2.53c-4.231,0-7.944-1.3-11.14-3.898
			c-3.373-2.734-6.088-6.838-8.145-12.309c-2.057-5.47-3.084-11.19-3.084-17.163c0-5.334,0.799-10.302,2.396-14.907
			c1.715-4.968,4.038-8.524,6.968-10.667c2.485-1.869,5.399-2.803,8.743-2.803c2.603,0,5.236,1.276,7.899,3.829
			c1.213,1.323,2.426,2.622,3.64,3.898l-5.592,9.642c-1.361-4.057-3.418-6.086-6.17-6.086c-2.751,0-4.941,1.163-6.568,3.487
			c-1.716,2.371-2.573,5.676-2.573,9.916c0,3.647,0.68,6.93,2.041,9.847c1.479,3.237,3.357,4.854,5.637,4.854
			c3.668,0,6.449-2.027,8.344-6.085L451.805,152.275z"/>
		<path fill="#FFFFFF" stroke="#334294" stroke-width="3" stroke-miterlimit="10" d="M486.599,151.66
			c-0.029,0.273-1.184,1.255-3.462,2.94c-2.959,2.234-6.021,3.601-9.187,4.104c-1.746,0.273-3.625,0.273-5.637,0
			c-2.16-0.274-4.201-1.026-6.124-2.257c-3.462-2.233-6.243-5.767-8.344-10.6c-2.574-5.88-3.877-12.377-3.905-19.488
			c-0.03-8.342,1.671-15.237,5.104-20.685c3.432-5.447,7.929-7.943,13.492-7.488c2.308-0.137,4.659,1.003,7.057,3.419
			c1.952,2.007,3.461,4.24,4.526,6.702c1.243,2.006,1.864,4.194,1.864,6.564c0.029,2.417-0.593,4.559-1.864,6.427
			c-1.095,1.323-2.16,2.234-3.195,2.735c-0.858,0.366-1.717,0.73-2.574,1.095c-2.249,0.775-5.06,1.504-8.433,2.188
			c-2.13,0.457-4.335,0.867-6.612,1.231c1.183,5.426,3.239,8.708,6.169,9.847c0.857,0.319,1.79,0.388,2.796,0.205
			c1.271-0.228,2.322-0.569,3.151-1.025c1.449-0.729,3.328-2.165,5.636-4.309c2.012-1.868,3.019-2.826,3.019-2.872L486.599,151.66z
			 M459.038,118.837c4.083-0.41,7.781-1.07,11.096-1.983c1.449-0.364,2.707-0.774,3.772-1.231c0.65-0.273,1.198-0.547,1.642-0.82
			c-0.118-0.182-0.222-0.342-0.311-0.479l-0.178-0.273c-1.036-2.005-2.026-3.419-2.974-4.239c-1.095-0.912-2.293-1.344-3.595-1.299
			c-1.598,0.046-3.077,0.456-4.438,1.23C461.42,111.156,459.748,114.188,459.038,118.837z"/>
	</g>
</g>
<g>
</g>
<g>
</g>
<g>
</g>
<g>
</g>
<g>
</g>
<g>
</g>
</svg>
