<?xml version="1.0" encoding="utf-8"?>
<!-- Generator: Adobe Illustrator 16.0.0, SVG Export Plug-In . SVG Version: 6.00 Build 0)  -->
<!DOCTYPE svg PUBLIC "-//W3C//DTD SVG 1.1//EN" "http://www.w3.org/Graphics/SVG/1.1/DTD/svg11.dtd">
<svg version="1.1" id="Livello_1" xmlns="http://www.w3.org/2000/svg" xmlns:xlink="http://www.w3.org/1999/xlink" x="0px" y="0px"
	 width="340.16px" height="368.5px" viewBox="0 0 340.16 368.5" enable-background="new 0 0 340.16 368.5" xml:space="preserve">
<g opacity="0.4">
	<path fill="#F8B16B" stroke="#000000" stroke-width="3" stroke-miterlimit="10" d="M129.5,164.452l12.625,20.25h19.5l16.92,22.3
		l-68.039,73.174c0,0-33.881,9.525-39.506-26.475L129.5,164.452z"/>
	<path fill="#F8B16B" stroke="#000000" stroke-width="3" stroke-miterlimit="10" d="M197.461,189.301l-10.001-33.077l-20.057-0.529
		l-7.401-25.62l55.458-61.204c0,0-3.818,55.692,60.102,60.08L197.461,189.301z"/>
	
		<ellipse transform="matrix(0.6624 0.7492 -0.7492 0.6624 142.8211 -189.0729)" fill="#C6C6C6" stroke="#000000" stroke-width="3" stroke-miterlimit="10" cx="281.183" cy="63.921" rx="53.002" ry="60.246"/>
	<path fill="none" stroke="#000000" stroke-width="3" stroke-miterlimit="10" d="M81.022,274.154
		c7.399,19.203-26.768,22.508-24.449,53.865c2.317,31.355-27.576,24.229-35.592,22.828C12.965,349.447,8.303,354.805,2,364.5"/>
	<polygon fill="#FFED00" stroke="#FFDE00" stroke-miterlimit="10" points="142.525,147.286 153.226,141.627 147.012,155.772 
		157.24,162.167 148.678,177.673 151.906,165.697 141.087,157.961 	"/>
	<polygon fill="#FFED00" stroke="#FFDE00" stroke-miterlimit="10" points="172.65,167.286 183.351,161.627 177.137,175.772 
		187.365,182.167 178.803,197.673 182.031,185.697 171.213,177.961 	"/>
</g>
</svg>
