<?xml version="1.0" encoding="utf-8"?>
<!-- Generator: Adobe Illustrator 16.0.0, SVG Export Plug-In . SVG Version: 6.00 Build 0)  -->
<!DOCTYPE svg PUBLIC "-//W3C//DTD SVG 1.1//EN" "http://www.w3.org/Graphics/SVG/1.1/DTD/svg11.dtd">
<svg version="1.1" id="Livello_1" xmlns="http://www.w3.org/2000/svg" xmlns:xlink="http://www.w3.org/1999/xlink" x="0px" y="0px"
	 width="269.29px" height="269.29px" viewBox="0 0 269.29 269.29" enable-background="new 0 0 269.29 269.29" xml:space="preserve">
<g>
	<circle fill="#85D0F5" cx="134.773" cy="134.292" r="132.5"/>
	<g>
		<path fill-rule="evenodd" clip-rule="evenodd" fill="#03589C" d="M223.503,86.118c-0.643,2.055-1.154,4.162-1.957,6.149
			c-1.109,2.742-2.965,5.009-5.041,7.109c-2.918,2.95-5.766,5.969-8.967,9.293c-1.979-2.105-3.83-4.166-5.779-6.133
			c-5.439-5.494-10.914-10.952-16.377-16.422c-5.5-5.503-10.998-11.003-16.498-16.504c-2.301-2.3-4.6-4.602-6.91-6.889
			c-0.428-0.423-0.869-0.757-0.25-1.379c3.387-3.41,6.617-6.992,10.17-10.219c7.787-7.073,20.67-7.075,28.404,0.039
			c4.818,4.432,9.332,9.196,13.99,13.802c2.484,2.454,5.16,4.797,6.592,8.049c1.088,2.478,1.762,5.139,2.623,7.718
			C223.503,82.527,223.503,84.323,223.503,86.118z"/>
		<path fill-rule="evenodd" clip-rule="evenodd" fill="#03589C" d="M46.041,221.909c0.324-1.319,0.707-2.629,0.965-3.963
			c2.357-12.031,4.684-24.07,7.037-36.104c1.031-5.271,2.102-10.534,3.221-16.13c0.918,1.209,1.732,2.202,2.463,3.256
			c1.557,2.247,3.063,4.528,4.6,6.788c0.875,1.283,1.232,2.646,1.252,4.239c0.053,3.909,0.061,7.849,0.559,11.715
			c0.881,6.866,4.662,10.448,11.615,11.134c3.744,0.369,7.533,0.268,11.301,0.42c0.832,0.034,1.813-0.006,2.457,0.406
			c3.803,2.428,7.523,4.979,11.275,7.488c-0.033,0.146-0.066,0.291-0.1,0.438c-0.926,0.209-1.85,0.438-2.779,0.622
			c-7.494,1.479-14.988,2.956-22.488,4.423c-10.457,2.045-20.918,4.079-31.377,6.119C46.041,222.478,46.041,222.193,46.041,221.909z
			"/>
		<path fill-rule="evenodd" clip-rule="evenodd" fill="#03589C" d="M116.187,204.159c-16.654-16.768-32.83-33.048-49.184-49.508
			c3.133-3.072,6.316-6.152,9.449-9.28c7.047-7.028,14.066-14.084,21.104-21.122c6.5-6.506,13.014-13.001,19.512-19.508
			c5.965-5.973,11.916-11.958,17.879-17.933c5.199-5.207,10.406-10.401,15.595-15.614c0.574-0.575,0.955-0.501,1.512,0.057
			c7.85,7.879,15.711,15.744,23.588,23.596c7.947,7.92,15.898,15.831,23.887,23.712c0.834,0.826,0.877,1.32,0.02,2.169
			c-9.189,9.094-18.328,18.234-27.502,27.343c-9.131,9.063-18.289,18.098-27.42,27.162c-7.996,7.938-15.98,15.884-23.935,23.863
			C119.164,200.63,117.802,202.332,116.187,204.159z M176.921,109.603c-23.547,23.681-47.089,47.358-70.515,70.916
			c2.777,2.828,5.705,5.809,8.686,8.84c23.552-23.701,47.095-47.391,70.476-70.917C182.876,115.689,179.915,112.665,176.921,109.603
			z M81.511,156.06c2.59,2.58,5.281,5.211,7.904,7.912c0.734,0.76,1.131,0.777,1.895,0.005c4.705-4.771,9.469-9.483,14.215-14.214
			c8.588-8.562,17.182-17.12,25.766-25.685c8.148-8.132,16.283-16.28,24.441-24.401c1.895-1.886,3.867-3.693,5.533-5.28
			c-3.162-3.252-6.078-6.249-9.104-9.36C128.652,108.67,105.125,132.324,81.511,156.06z"/>
	</g>
</g>
<g>
</g>
<g>
</g>
<g>
</g>
<g>
</g>
<g>
</g>
<g>
</g>
</svg>
