<?xml version="1.0" encoding="utf-8"?>
<!-- Generator: Adobe Illustrator 16.0.0, SVG Export Plug-In . SVG Version: 6.00 Build 0)  -->
<!DOCTYPE svg PUBLIC "-//W3C//DTD SVG 1.1//EN" "http://www.w3.org/Graphics/SVG/1.1/DTD/svg11.dtd">
<svg version="1.1" id="Livello_1" xmlns="http://www.w3.org/2000/svg" xmlns:xlink="http://www.w3.org/1999/xlink" x="0px" y="0px"
	 width="269.29px" height="269.29px" viewBox="0 0 269.29 269.29" enable-background="new 0 0 269.29 269.29" xml:space="preserve">
<g>
	<circle fill="#85D0F5" cx="134.773" cy="134.292" r="132.5"/>
	<g>
		<path fill-rule="evenodd" clip-rule="evenodd" fill="#03589C" d="M87.691,233.693c-2.449-0.939-5.058-1.598-7.316-2.875
			c-5.835-3.303-8.859-8.561-9.587-15.164c-0.138-1.258-0.091-2.537-0.091-3.807c-0.004-44.344-0.004-88.687-0.004-133.028
			c0-0.732,0-1.463,0-2.316c42.668,0,85.179,0,127.876,0c0.031,0.549,0.092,1.107,0.092,1.664
			c0.004,45.029-0.002,90.062,0.008,135.091c0.002,6.912-2.559,12.654-8.191,16.641c-2.305,1.631-5.256,2.35-7.914,3.479
			c-0.283,0.121-0.58,0.213-0.869,0.316C150.36,233.693,119.026,233.693,87.691,233.693z M91.156,154.59
			c0,7.354-0.001,14.705,0,22.059c0.002,10.473,0.002,20.947,0.012,31.42c0.003,2.861,1.5,4.854,3.98,5.965
			c2.451,1.1,4.837,0.725,6.942-1.092c1.937-1.674,2.427-3.852,2.426-6.27c-0.009-34.754-0.006-69.508-0.009-104.261
			c0-0.477,0.014-0.955-0.041-1.426c-0.619-5.469-6.038-8.129-10.523-5.115c-2.101,1.412-2.811,3.525-2.806,6.035
			C91.176,119.466,91.158,137.029,91.156,154.59z M128.196,154.604h-0.011c0,17.191-0.001,34.385,0.005,51.576
			c0,0.898,0,1.805,0.113,2.693c0.478,3.754,4.133,6.352,7.823,5.594c3.577-0.734,5.468-3.404,5.468-7.779
			c0.002-34.701,0.002-69.402-0.012-104.104c0-0.945-0.053-1.914-0.248-2.836c-0.877-4.107-5.597-6.348-9.329-4.441
			c-2.818,1.441-3.828,3.865-3.824,6.928C128.21,119.69,128.196,137.146,128.196,154.604z M178.638,154.672
			c0-17.359,0.002-34.72-0.004-52.081c0-0.791,0-1.594-0.115-2.375c-0.67-4.623-5.762-7.035-9.803-4.703
			c-2.809,1.623-3.439,4.262-3.441,7.182c-0.012,34.616-0.01,69.231,0,103.847c0,0.893,0.07,1.801,0.244,2.678
			c0.986,4.957,6.658,7.018,10.637,3.904c1.988-1.559,2.49-3.672,2.49-6.053C178.63,189.605,178.638,172.139,178.638,154.672z"/>
		<path fill-rule="evenodd" clip-rule="evenodd" fill="#03589C" d="M149.62,34.89c1.627,0.828,3.359,1.502,4.861,2.516
			c2.379,1.605,3.729,4.018,4.307,6.797c0.217,1.049,0.732,1.182,1.631,1.18c8.361-0.023,16.723,0.07,25.082-0.035
			c11.256-0.143,21.23,7.318,23.955,18.627c0.391,1.625,0.441,3.332,0.67,5.178c-50.318,0-100.433,0-150.679,0
			c-0.197-3.6,0.646-6.965,2.243-10.084c4.519-8.82,11.784-13.496,21.718-13.666c8.465-0.145,16.932-0.035,25.399-0.029
			c0.804,0.002,1.49,0.1,1.748-1.037c1.044-4.605,3.818-7.66,8.402-9.004c0.288-0.084,0.54-0.291,0.81-0.441
			C129.718,34.89,139.669,34.89,149.62,34.89z"/>
	</g>
</g>
<g>
</g>
<g>
</g>
<g>
</g>
<g>
</g>
<g>
</g>
<g>
</g>
</svg>
