<?xml version="1.0" encoding="utf-8"?>
<!-- Generator: Adobe Illustrator 16.0.0, SVG Export Plug-In . SVG Version: 6.00 Build 0)  -->
<!DOCTYPE svg PUBLIC "-//W3C//DTD SVG 1.1//EN" "http://www.w3.org/Graphics/SVG/1.1/DTD/svg11.dtd">
<svg version="1.1" id="Livello_1" xmlns="http://www.w3.org/2000/svg" xmlns:xlink="http://www.w3.org/1999/xlink" x="0px" y="0px"
	 width="532.91px" height="235.28px" viewBox="0 0 532.91 235.28" enable-background="new 0 0 532.91 235.28" xml:space="preserve">
<g>
	<path fill="#EC654D" stroke="#E30613" stroke-width="11" stroke-miterlimit="10" d="M491.014,35.571H197.058
		c-0.569,0-1.122,0.056-1.667,0.139c-18.409-15.083-41.946-24.135-67.601-24.135c-58.95,0-106.739,47.79-106.739,106.741
		c0,58.95,47.789,106.739,106.739,106.739c28.15,0,53.75-10.901,72.822-28.709h290.401c6.098,0,11.042-4.942,11.042-11.042V46.613
		C502.056,40.514,497.111,35.571,491.014,35.571z"/>
	<path fill="#F8B16B" stroke="#00983A" stroke-width="3" stroke-miterlimit="10" d="M85.891,29.712"/>
	<g>
		<path fill="#FFFFFF" stroke="#E30613" stroke-width="3" stroke-miterlimit="10" d="M229.512,100.996
			c-0.648,8.206-0.972,17.119-0.972,26.737c0,8.936,0.314,17.414,0.942,25.438c-2.734,2.463-4.445,4.125-5.134,4.992
			c-2.794-10.668-6.268-21.471-10.418-32.412c-1.722-4.559-3.514-8.981-5.376-13.266c0.283,8.114,0.83,15.659,1.64,22.633
			l2.704,23.045l-13.335,1.025c1.154-11.305,1.833-18.053,2.035-20.24c0.83-8.25,1.347-20.833,1.549-37.747l-5.741-11.898
			l10.692-18.052c2.612,12.811,4.171,20.446,4.678,22.907c1.944,9.392,5.498,22.726,10.662,40.003
			c-0.729-16-1.61-27.921-2.643-35.763l-2.643-20.241l13.304-1.026C230.464,89.348,229.816,97.303,229.512,100.996z"/>
		<path fill="#FFFFFF" stroke="#E30613" stroke-width="3" stroke-miterlimit="10" d="M251.99,103.047
			c2.288,4.422,3.433,10.872,3.433,19.351c0,10.85-1.296,19.352-3.888,25.506c-2.329,5.563-5.255,8.344-8.778,8.344
			c-3.321,0-6.146-3.031-8.475-9.096c-2.39-6.291-3.584-14.109-3.584-23.455c0-17.823,4.313-26.736,12.94-26.736
			C247.12,96.961,249.904,98.99,251.99,103.047z M245.884,140.93c1.215-2.916,1.823-6.928,1.823-12.035
			c0-8.023-1.823-12.035-5.468-12.035c-3.969,0-5.954,4.218-5.954,12.65c0,4.424,0.542,8.094,1.625,11.01
			c1.083,2.918,2.394,4.377,3.934,4.377C243.464,144.896,244.811,143.574,245.884,140.93z"/>
		<path fill="#FFFFFF" stroke="#E30613" stroke-width="3" stroke-miterlimit="10" d="M283.55,124.383
			c0.242,3.465,0.477,6.93,0.699,10.393c0.141,1.824,0.262,5.836,0.363,12.035c0.102,6.656,0.051,10.303-0.15,10.941l-9.721-2.393
			c0.344-2.189,0.688-4.377,1.033-6.564c0.748-5.563,1.254-10.805,1.518-15.729c0.041-0.865,0.061-1.732,0.061-2.598
			c0-4.148-0.586-8.686-1.762-13.609c-0.223-0.865-0.541-1.595-0.955-2.188c-0.416-0.592-0.877-1.025-1.383-1.299
			c-0.932-0.455-1.854-0.205-2.764,0.752c-1.033,1.05-1.863,2.28-2.492,3.692c-0.385,0.821-0.83,2.076-1.336,3.761
			c-0.08,2.461-0.121,4.969-0.121,7.521c0,6.338,0.293,12.834,0.881,19.488c0.547,6.248,0.83,9.004,0.85,8.275l-11.057-0.82
			c0.143,0.365,0.607-2.463,1.398-8.48c0.869-6.791,1.305-12.832,1.305-18.121c0-5.287-0.455-9.436-1.365-12.445
			c-0.467-1.959-1.145-4.421-2.036-7.385c-0.83-2.78-1.296-4.217-1.397-4.309l11.542-9.026c0.264,0.229,0.414,4.217,0.455,11.966
			c1.438-2.552,2.998-4.216,4.678-4.991c1.885-0.912,3.746-0.296,5.59,1.846c2.35,2.735,3.807,5.266,4.375,7.591
			C282.567,115.971,283.165,119.869,283.55,124.383z"/>
		<path fill="#FFFFFF" stroke="#E30613" stroke-width="3" stroke-miterlimit="10" d="M348.645,146.332
			c0.08,6.611,0.07,10.053-0.03,10.326l-9.842-3.488c0.526-4.057,1.053-8.113,1.579-12.172c1.073-9.299,1.61-16.318,1.61-21.061
			c0-3.875-0.365-7.43-1.094-10.667c-0.729-3.236-1.954-4.855-3.676-4.855c-0.526,0-1.002,0.229-1.428,0.684
			c-1.66,1.87-2.744,4.104-3.25,6.701c-0.709,3.785-0.77,9.164-0.182,16.138c0.323,3.738,0.627,9.051,0.911,15.934
			c0.283,6.428,0.384,9.756,0.304,9.982l-10.358-1.504c0.486-1.869,1.073-6.723,1.762-14.564c0.669-7.566,1.003-12.764,1.003-15.592
			c0-3.692-0.588-7.476-1.762-11.351c-0.567-1.822-1.408-3.077-2.521-3.761c-0.851-0.501-1.722-0.25-2.612,0.752
			c-0.324,0.365-0.79,0.593-1.397,0.684c-0.425,0.046-0.759,0.457-1.002,1.231c-0.143,1.504-0.284,2.964-0.426,4.376
			c-0.263,5.79-0.395,11.581-0.395,17.37c0,5.379,0.111,10.576,0.334,15.59c0.202,4.469,0.313,6.496,0.334,6.086l-10.206,2.121
			c0.162,0.41,0.688-2.941,1.58-10.053c0.991-7.977,1.488-15.088,1.488-21.336c0-5.469-0.405-9.891-1.215-13.265
			c-0.507-2.188-1.397-5.015-2.674-8.479c-1.174-3.19-1.771-4.672-1.792-4.444l12.849-10.736c0.183,1.87,0.294,5.402,0.334,10.599
			c1.52-2.188,3.038-3.282,4.557-3.282c1.417,0,2.805,0.798,4.161,2.393c1.438,1.687,2.653,4.354,3.646,8
			c2.105-6.883,4.557-10.804,7.351-11.761c0.364-0.091,0.719-0.137,1.063-0.137c1.66,0,3.255,1.174,4.784,3.521
			c1.528,2.348,2.729,6.075,3.6,11.18c0.607,3.465,1.083,7.385,1.428,11.762c0.04,0.547,0.272,4.08,0.698,10.598
			C348.401,133.637,348.563,139.129,348.645,146.332z"/>
		<path fill="#FFFFFF" stroke="#E30613" stroke-width="3" stroke-miterlimit="10" d="M348.887,99.902
			c2.207,0.775,4.02,1.094,5.438,0.957c1.66-0.318,3.321-0.638,4.981-0.957c-0.77,24.663-1.296,43.241-1.579,55.731l-5.559,1.436
			C351.014,131.676,349.92,112.621,348.887,99.902z M348.887,99.902c2.207,0.775,4.02,1.094,5.438,0.957
			c1.66-0.318,3.321-0.638,4.981-0.957c-0.77,24.663-1.296,43.241-1.579,55.731l-5.559,1.436
			C351.014,131.676,349.92,112.621,348.887,99.902z M357.727,74.464c0,6.109-1.205,9.004-3.615,8.684
			c-2.167-0.273-3.25-3.327-3.25-9.163c0-6.701,1.113-10.052,3.342-10.052C356.552,63.933,357.727,67.444,357.727,74.464z"/>
		<path fill="#FFFFFF" stroke="#E30613" stroke-width="3" stroke-miterlimit="10" d="M404.564,108.517
			c2.188,5.243,3.281,12.903,3.281,22.977c0,8.068-0.963,14.359-2.886,18.873c-1.823,4.33-4.253,6.496-7.29,6.496
			c-3.342,0-5.984-1.641-7.929-4.924c0.062,4.695,0.102,8.182,0.122,10.463c0.101,3.236,0.101,8.068,0,14.496
			c-0.081,6.018-0.162,9.049-0.243,9.096l-10.753-5.676c2.328-7.568,3.938-15.205,4.83-22.908c0.547-4.604,0.819-9.459,0.819-14.564
			c0-5.926-0.354-12.059-1.063-18.395c-0.507-4.605-1.154-9.027-1.944-13.267c-0.668-3.646-1.013-5.287-1.032-4.923l7.563-4.24
			c0.08,0.503,0.242,3.898,0.485,10.189c2.167-7.066,4.951-10.6,8.354-10.6C400.079,101.611,402.641,103.914,404.564,108.517z
			 M401.345,127.117c0-4.695-0.547-8.387-1.64-11.078c-0.973-2.37-2.198-3.556-3.676-3.556c-1.377,0-2.557,1.333-3.539,4
			c-0.982,2.667-1.473,6.03-1.473,10.086c0,7.658,1.802,11.488,5.406,11.488C399.705,138.059,401.345,134.412,401.345,127.117z"/>
		<path fill="#FFFFFF" stroke="#E30613" stroke-width="3" stroke-miterlimit="10" d="M408.392,99.902
			c2.207,0.775,4.02,1.094,5.438,0.957c1.66-0.318,3.321-0.638,4.981-0.957c-0.77,24.663-1.296,43.241-1.579,55.731l-5.559,1.436
			C410.519,131.676,409.425,112.621,408.392,99.902z M408.392,99.902c2.207,0.775,4.02,1.094,5.438,0.957
			c1.66-0.318,3.321-0.638,4.981-0.957c-0.77,24.663-1.296,43.241-1.579,55.731l-5.559,1.436
			C410.519,131.676,409.425,112.621,408.392,99.902z M417.231,74.464c0,6.109-1.205,9.004-3.615,8.684
			c-2.167-0.273-3.25-3.327-3.25-9.163c0-6.701,1.113-10.052,3.342-10.052C416.057,63.933,417.231,67.444,417.231,74.464z"/>
		<path fill="#FFFFFF" stroke="#E30613" stroke-width="3" stroke-miterlimit="10" d="M443.597,133.203
			c-0.021,9.574,0.536,18.098,1.671,25.574l-5.589,2.873c0.061-1.461,0.101-4.264,0.121-8.412c-1.883,3.191-4.495,4.787-7.837,4.787
			c-7.735,0-11.604-6.244-11.604-18.736c0-6.609,1.073-12.104,3.22-16.48c2.086-4.33,4.617-6.496,7.595-6.496
			c3.442,0,6.236,2.303,8.383,6.906c-0.102-4.01-0.192-6.723-0.273-8.136c-0.324-5.652-1.458-8.479-3.401-8.479
			c-0.527,0-1.135,0.183-1.823,0.547c-2.187,1.186-4.667,3.214-7.441,6.086c-2.167,2.28-3.393,3.738-3.676,4.376l-3.189-20.651
			c0.081-0.273,1.387-0.82,3.919-1.641c2.773-0.865,5.285-1.436,7.533-1.709c2.551-0.273,4.627,0.046,6.227,0.958
			c1.194,0.729,2.318,2.188,3.372,4.376c1.053,2.188,1.781,4.605,2.187,7.249c0.445,3.101,0.658,7.932,0.638,14.497
			C443.606,129.168,443.597,133.34,443.597,133.203z M438.585,133.135c0-3.191-0.537-5.676-1.61-7.453
			c-0.972-1.643-2.187-2.463-3.645-2.463c-1.377,0-2.557,0.902-3.539,2.701c-0.982,1.803-1.473,4.092-1.473,6.873
			c0,5.197,1.792,7.795,5.376,7.795C436.955,140.588,438.585,138.104,438.585,133.135z"/>
		<path fill="#FFFFFF" stroke="#E30613" stroke-width="3" stroke-miterlimit="10" d="M467.594,151.734
			c-0.588,1.551-1.509,3.008-2.765,4.377c-1.539,1.686-3.078,2.529-4.617,2.529c-2.896,0-5.437-1.299-7.624-3.898
			c-2.309-2.734-4.166-6.838-5.573-12.309c-1.408-5.469-2.111-11.189-2.111-17.162c0-5.334,0.547-10.302,1.64-14.908
			c1.175-4.969,2.765-8.524,4.77-10.667c1.701-1.869,3.695-2.804,5.983-2.804c1.782,0,3.585,1.277,5.407,3.83
			c0.83,1.322,1.66,2.622,2.49,3.897l-3.827,9.642c-0.932-4.057-2.339-6.086-4.222-6.086c-1.884,0-3.382,1.163-4.496,3.487
			c-1.174,2.371-1.762,5.676-1.762,9.916c0,3.648,0.466,6.93,1.397,9.848c1.013,3.236,2.298,4.854,3.857,4.854
			c2.511,0,4.415-2.027,5.711-6.086L467.594,151.734z"/>
		<path fill="#FFFFFF" stroke="#E30613" stroke-width="3" stroke-miterlimit="10" d="M491.408,151.119
			c-0.021,0.273-0.811,1.254-2.369,2.939c-2.025,2.234-4.121,3.602-6.288,4.104c-1.194,0.273-2.48,0.273-3.857,0
			c-1.479-0.273-2.876-1.025-4.191-2.256c-2.37-2.234-4.273-5.768-5.711-10.6c-1.762-5.881-2.653-12.377-2.673-19.488
			c-0.021-8.343,1.144-15.238,3.493-20.686c2.349-5.446,5.427-7.942,9.234-7.487c1.579-0.137,3.188,1.003,4.829,3.419
			c1.337,2.007,2.369,4.239,3.099,6.701c0.851,2.007,1.275,4.195,1.275,6.564c0.021,2.417-0.405,4.56-1.275,6.428
			c-0.75,1.322-1.479,2.234-2.188,2.734c-0.587,0.365-1.175,0.73-1.762,1.096c-1.539,0.775-3.463,1.504-5.771,2.188
			c-1.458,0.457-2.967,0.867-4.525,1.23c0.81,5.426,2.217,8.709,4.222,9.848c0.588,0.318,1.226,0.387,1.914,0.205
			c0.87-0.229,1.59-0.57,2.156-1.025c0.992-0.729,2.278-2.166,3.858-4.309c1.376-1.869,2.065-2.826,2.065-2.873L491.408,151.119z
			 M472.545,118.296c2.795-0.411,5.326-1.071,7.594-1.983c0.992-0.364,1.854-0.774,2.582-1.23c0.445-0.274,0.82-0.548,1.124-0.821
			c-0.081-0.182-0.151-0.342-0.213-0.479l-0.121-0.273c-0.709-2.006-1.388-3.419-2.035-4.239c-0.75-0.912-1.569-1.345-2.461-1.3
			c-1.093,0.046-2.105,0.456-3.037,1.231C474.175,110.615,473.031,113.646,472.545,118.296z"/>
	</g>
	<g>
		<path fill="#F8B16B" stroke="#E30613" stroke-width="3" stroke-miterlimit="10" d="M54.663,61.794l68.063,103.197
			c1.715-19.299,16.551-34.228,37.496-32.276L75.077,43.09c0,0-7.516-1.124-13.438,3.301C58.085,49.047,55.104,53.7,54.663,61.794z"
			/>

			<ellipse transform="matrix(-0.6045 -0.7966 0.7966 -0.6045 120.8159 402.1645)" fill="#C6C6C6" stroke="#E30613" stroke-width="3" stroke-miterlimit="10" cx="160.238" cy="171.092" rx="35.073" ry="30.856"/>
	</g>
</g>
<g>
</g>
<g>
</g>
<g>
</g>
<g>
</g>
<g>
</g>
<g>
</g>
</svg>
