<?xml version="1.0" encoding="utf-8"?>
<!-- Generator: Adobe Illustrator 16.0.0, SVG Export Plug-In . SVG Version: 6.00 Build 0)  -->
<!DOCTYPE svg PUBLIC "-//W3C//DTD SVG 1.1//EN" "http://www.w3.org/Graphics/SVG/1.1/DTD/svg11.dtd">
<svg version="1.1" id="Livello_1" xmlns="http://www.w3.org/2000/svg" xmlns:xlink="http://www.w3.org/1999/xlink" x="0px" y="0px"
	 width="263.621px" height="113.391px" viewBox="0 0 263.621 113.391" enable-background="new 0 0 263.621 113.391"
	 xml:space="preserve">
<g>
	<path fill="#130C72" stroke="#1E1E1C" stroke-miterlimit="10" d="M257.367,97.996c-10.814,0-21.63,0-32.443,0
		c0.455-2.308,0.865-4.626,1.382-6.921c0.392-1.741-0.22-3.369-1.72-4.275c-1.303-0.786-2.562-1.647-3.892-2.384
		c-0.485-0.269-1.129-0.411-1.685-0.372c-2.699,0.186-5.219-0.541-7.797-1.326c1.099,4.908,1.066,9.907,0.679,14.917
		c-0.222-0.59-0.228-1.184-0.22-1.779c0.054-4.15-0.03-8.287-0.851-12.382c-0.141-0.709-0.353-1.061-1.101-1.145
		c-0.307-0.033-0.571-0.433-0.854-0.666c-0.185-0.154-0.345-0.398-0.555-0.451c-0.742-0.185-1.395-0.583-1.221-1.363
		c0.113-0.518,0.725-0.934,1.137-1.372c0.111-0.122,0.305-0.171,0.459-0.252c0.002-0.104,0.002-0.205,0.003-0.307
		c-0.642-0.05-1.319-0.258-1.914-0.117c-1.097,0.26-2.167,0.674-3.211,1.111c-1.751,0.734-3.435,1.633-5.211,2.293
		c-4.214,1.563-8.333,1.485-11.976-1.433c-4.047-3.243-7.15-7.282-8.93-12.181c-0.796-2.188-1.113-4.553-1.648-6.836
		c0-1.599,0-3.197,0-4.798c0.072-0.324,0.176-0.646,0.211-0.976c0.391-3.704,1.293-7.295,3.053-10.563
		c1.326-2.46,2.93-4.796,4.631-7.018c1.751-2.281,4.055-4.025,6.62-5.336c2.386-1.22,4.646-2.779,7.521-2.78
		c1.197,0,2.396-0.349,3.679-0.552c-0.638-0.855-0.292-1.501,0.239-2.123c0.787-0.923,1.408,0.006,1.963,0.213
		c0.516-0.542,0.906-1.057,1.402-1.434c0.256-0.194,0.805-0.314,1.034-0.17c0.603,0.379,1.099,0.302,1.694,0.035
		c0.271-0.121,0.652-0.032,0.979,0.012c1.223,0.163,2.479,0.613,3.659,0.468c2.552-0.314,2.853,0.574,3.769,2.261
		c0.759,1.396,0.387,2.636-0.487,3.823c-0.769,1.044-1.784,1.178-2.946,0.855c-0.173-0.048-0.367-0.007-0.67-0.007
		c-0.245,1.583-0.501,3.149-0.723,4.723c-0.096,0.674-0.32,1.426-0.129,2.027c0.894,2.819,1.676,5.712,2.951,8.36
		c1.408,2.92,3.312,5.601,5.03,8.438c1.871-1.462,3.751-2.869,5.562-4.362c2.462-2.028,4.882-4.106,7.283-6.2
		c0.31-0.269,0.574-0.755,0.595-1.156c0.18-3.661-1.333-6.72-5.222-7.803c-0.944-0.264-1.885-0.618-2.75-1.074
		c-1.582-0.836-1.972-2.526-1.051-4.084c0.129-0.216,0.342-0.554,0.264-0.693c-0.7-1.244,0.012-1.886,1.06-2.408
		c-0.507-1.107-0.801-2.127,0.244-3.078c0.194-0.178,0.144-0.816-0.003-1.153c-0.742-1.713-0.783-1.737,0.959-2.571
		c0.996-0.477,1.695-1.131,1.912-2.238c0.234-1.207,0.933-2.228,1.176-3.49c0.313-1.612,1.625-2.859,3.429-3.104
		c1.312-0.176,2.653-0.092,3.974-0.208c1.254-0.109,2.5-0.327,3.748-0.499c1.064,0,2.133,0,3.197,0
		c1.533,0.705,3.221,1.194,4.563,2.16c2.457,1.765,3.7,4.45,4.297,7.328c0.798,3.854,1.336,7.761,2.019,11.641
		c0.373,2.134,0.686,4.292,1.26,6.372c0.457,1.656,0.949,3.474,1.994,4.757c2.155,2.646,3.074,5.566,2.563,8.804
		c-0.423,2.675-1.039,5.414-2.153,7.861c-1.709,3.752-1.222,7.249,0.263,10.795c1.031,2.463,1.713,2.736,4.16,1.969
		c0,0.076,0,0.154,0,0.229c-1.279,0.863-2.488,1.919-4.258,1.465c2.534,5.325,2.691,6.131,1.277,7.637
		c0.597-1.384,0.74-2.513-0.495-3.403c-2.163,6.231-2.183,6.27-3.683,6.563c0-0.511,0-1,0-1.372
		c-1.188,0.574-2.332,1.128-3.688,1.784C252.865,90.755,255.078,94.393,257.367,97.996z M204.939,77.962
		c-0.88-1.497-0.709-1.981,0.646-2.545c0.386-0.16,0.795-0.268,1.166-0.454c0.234-0.116,0.543-0.302,0.604-0.517
		c0.354-1.265,1.37-1.437,2.417-1.477c0.91-0.034,1.854-0.069,2.731,0.121c2.82,0.616,5.64,1.289,7.652,3.644
		c0.287,0.338,0.676,0.641,1.079,0.814c1.196,0.521,2.427,0.969,3.64,1.442c-0.371-1.559-0.703-3.228-1.164-4.859
		c-0.824-2.923-0.479-5.565,1.617-7.872c0.03-0.032-0.009-0.129-0.024-0.303c-1.229,0.443-2.406,0.97-3.64,1.283
		c-1.449,0.367-2.949,0.748-4.431,0.768c-2.241,0.028-4.014-0.838-4.696-3.276c-0.238-0.85-0.895-1.579-1.34-2.372
		c-0.646-1.154-1.447-2.258-1.882-3.487c-1.622-4.582-2.974-9.251-3.601-14.088c-0.232-1.816-0.768-3.439-1.881-4.928
		c-0.492-0.66-0.715-1.588-0.86-2.431c-0.336-1.968-0.552-3.957-0.823-5.99c-2.271,0-4.543-0.008-6.814,0.006
		c-0.414,0.003-1.002,0.29-1.213,0.104c-0.675-0.592-1.175-0.125-1.709,0.109c-6.574,2.879-10.897,7.955-13.529,14.448
		c-4.904,12.108-2.94,23.675,7.113,32.688c2.771,2.485,6.072,3.482,9.627,2.543C198.789,80.501,201.806,79.121,204.939,77.962z"/>
</g>
<path fill="#130C72" d="M6.92,86.766c0.001,0.021-0.012-0.023-0.003-0.063c0.19-0.79-0.275-1.195-0.86-1.584
	c-0.711-0.473-1.389-0.999-2.061-1.527c-0.118-0.094-0.215-0.332-0.186-0.476c0.259-1.265,0.507-2.535,0.84-3.781
	c0.495-1.855,1.031-3.704,1.597-5.539c0.474-1.535,0.994-3.056,1.529-4.569c0.721-2.044,1.52-4.063,2.197-6.12
	c0.384-1.168,0.828-2.289,1.396-3.38c0.531-1.021,0.856-2.149,1.385-3.172c0.376-0.727,0.899-1.391,1.433-2.018
	c0.892-1.048,1.935-1.938,3.128-2.637c0.63-0.369,1.261-0.738,1.916-1.061c0.256-0.125,0.313-0.291,0.35-0.526
	c0.27-1.703,0.823-3.273,2.024-4.575c0.895-0.97,1.727-1.995,2.588-2.994c0.065-0.075,0.125-0.173,0.209-0.206
	c0.496-0.19,0.49-0.637,0.587-1.053c0.118-0.506,0.3-0.997,0.443-1.497c0.112-0.392,0.084-0.756-0.202-1.089
	c-0.139-0.162-0.202-0.385-0.325-0.563c-0.781-1.134-1.739-2.11-2.724-3.063c-0.079-0.077-0.18-0.129-0.259-0.206
	c-0.243-0.236-0.557-0.406-0.611-0.809c-0.021-0.152-0.209-0.281-0.318-0.424c-0.079-0.103-0.239-0.234-0.216-0.308
	c0.103-0.33-0.116-0.509-0.268-0.731c-0.646-0.948-0.954-2.016-1.01-3.146c-0.104-2.093-0.204-4.187-0.248-6.28
	c-0.026-1.261,0.191-2.497,0.566-3.715c0.361-1.174,0.823-2.277,1.617-3.222c0.377-0.446,0.772-0.877,1.169-1.309
	c0.475-0.513,0.959-1.018,1.44-1.525c0.019-0.021,0.037-0.043,0.062-0.058c0.313-0.176,0.607-0.407,0.941-0.515
	c0.77-0.249,1.283-0.839,1.892-1.307c0.898-0.687,1.808-1.359,2.716-2.034c0.771-0.573,1.664-0.881,2.572-1.149
	c0.17-0.049,0.355-0.052,0.581-0.083c0.115-0.461,0.238-0.949,0.359-1.437c0.11-0.448,0.424-0.731,0.864-0.725
	c0.783,0.015,1.567,0.022,2.346,0.095c0.346,0.032,0.686,0.193,1.014,0.333c0.377,0.161,0.6,0.049,0.768-0.307
	c0.045-0.096,0.193-0.197,0.297-0.201c0.576-0.02,1.153-0.001,1.73-0.013c0.28-0.005,0.282,0.177,0.337,0.374
	c0.053,0.193,0.136,0.416,0.28,0.54c0.835,0.716,1.44,1.577,1.74,2.638c0.347,1.229,0.643,2.471,1.019,3.688
	c0.329,1.063,0.647,2.154,1.423,2.996c0.489,0.529,1.083,0.962,1.604,1.464c0.282,0.271,0.586,0.561,0.751,0.903
	c0.328,0.688,0.625,1.402,0.827,2.135c0.259,0.936,1.025,1.308,1.727,1.775c0.778,0.52,1.564,1.026,2.319,1.578
	c0.274,0.201,0.467,0.514,0.749,0.833c-0.306,0.582-0.651,1.17-0.925,1.792c-0.097,0.221-0.118,0.581-0.001,0.772
	c0.648,1.06,0.625,2.164,0.405,3.331c-0.117,0.622-0.057,1.276,0.207,1.882c0.125,0.287,0.284,0.494,0.615,0.637
	c0.663,0.286,0.884,0.9,0.931,1.593c0.04,0.595,0.099,1.188,0.173,1.779c0.056,0.446,0.391,0.717,0.686,1.013
	c0.103,0.104,0.225,0.252,0.224,0.38c-0.003,0.643,0.032,1.301-0.107,1.917c-0.066,0.295-0.447,0.594-0.756,0.745
	c-0.93,0.454-1.938,0.573-2.972,0.628c-0.931,0.05-1.876,0.178-2.772,0.426c-1.063,0.293-1.648,1.116-1.91,2.182
	c-0.196,0.797-0.214,1.61,0.026,2.372c0.238,0.75,0.479,1.511,1.389,1.876c0.694,0.277,1.329,0.786,1.887,1.305
	c1.106,1.027,2.404,1.478,3.874,1.528c0.995,0.036,1.993,0.102,2.987,0.074c1.027-0.029,2.05-0.159,3.074-0.241
	c1.196-0.094,2.222,0.393,3.261,0.901c0.781,0.382,1.629,0.623,2.429,0.968c0.281,0.121,0.533,0.34,0.757,0.556
	c1.203,1.157,2.5,2.192,3.835,3.192c0.485,0.362,0.786,0.963,1.214,1.414c0.435,0.46,0.923,0.873,1.388,1.305
	c0.351,0.327,0.721,0.637,1.052,0.984c0.668,0.701,1.266,1.478,1.987,2.117c0.598,0.531,1.322,0.921,2.003,1.353
	c0.539,0.343,1.095,0.658,1.647,0.979c0.246,0.144,0.491,0.3,0.755,0.394c1.101,0.389,2.208,0.754,3.402,1.158
	c0.064-0.282,0.15-0.535,0.174-0.795c0.062-0.66,0.054-1.313-0.06-1.978c-0.111-0.644-0.058-1.313-0.106-1.969
	c-0.119-1.617-0.11-3.241-0.479-4.839c-0.184-0.791-0.174-1.625-0.281-2.435c-0.134-1.013-0.292-2.021-0.45-3.029
	c-0.121-0.776-0.215-1.561-0.396-2.323c-0.318-1.349-0.688-2.686-1.047-4.024c-0.298-1.11-0.77-2.149-1.364-3.132
	c-0.115-0.191-0.3-0.365-0.493-0.479c-0.933-0.556-1.853-1.143-2.828-1.613c-1.036-0.5-2.107-0.951-3.204-1.296
	c-0.78-0.246-1.622-0.317-2.442-0.4c-1.242-0.125-2.042-0.837-2.738-1.801c-0.335-0.463-0.596-0.938-0.827-1.452
	c-0.13-0.29-0.421-0.513-0.657-0.749c-0.196-0.196-0.441-0.346-0.621-0.555c-0.216-0.251-0.408-0.193-0.603-0.016
	c-0.12,0.11-0.209,0.256-0.313,0.387c-0.472,0.596-1.156,0.561-1.755,0.431c-0.701-0.153-1.394-0.438-2.025-0.787
	c-0.695-0.385-0.944-1.136-1.226-1.849c-0.463-1.173-0.305-2.229,0.343-3.3c0.392-0.646,1.938-1.183,2.627-1.014
	c0.541,0.133,1.029,0.333,1.474,0.69c0.481,0.386,1.07,0.551,1.695,0.55c0.749-0.002,1.498-0.021,2.246,0.006
	c0.538,0.02,1.073,0.122,1.612,0.146c0.184,0.008,0.438-0.057,0.548-0.184c0.244-0.277,0.604-0.505,0.56-0.972
	c-0.008-0.093,0.132-0.235,0.236-0.298c0.996-0.599,1.436-0.539,2.188,0.339c0.17,0.2,0.25,0.486,0.34,0.743
	c0.101,0.288,0.231,0.267,0.427,0.096c0.364-0.32,0.725-0.646,1.116-0.935c0.104-0.076,0.344-0.08,0.46-0.013
	c0.619,0.359,1.211,0.764,1.827,1.126c0.18,0.106,0.405,0.175,0.614,0.187c0.462,0.027,0.932-0.024,1.392,0.021
	c0.254,0.024,0.536,0.128,0.738,0.283c0.474,0.364,0.879,0.819,1.369,1.155c0.248,0.171,0.622,0.239,0.933,0.224
	c0.944-0.047,1.843,0.188,2.756,0.339c1.222,0.205,2.449,0.381,3.664,0.615c0.492,0.095,0.975,0.281,1.441,0.476
	c0.856,0.355,1.688,0.766,2.547,1.116c0.629,0.259,1.097,0.729,1.457,1.24c1.096,1.555,1.949,3.233,2.589,5.044
	c0.646,1.834,1.033,3.731,1.595,5.582c0.433,1.429,0.94,2.842,1.516,4.22c0.346,0.829,0.878,1.582,1.342,2.36
	c0.182,0.304,0.289,0.57-0.091,0.809c-0.901-0.979-1.491-2.131-2.019-3.314c-1.005-2.26-1.443-4.692-2.121-7.052
	c-0.499-1.737-1.102-3.437-1.997-5.014c-0.097-0.171-0.336-0.255-0.476-0.41c-0.387-0.426-0.748-0.875-1.134-1.302
	c-0.407-0.449-0.805-0.916-1.263-1.309c-0.178-0.153-0.511-0.17-0.774-0.176c-0.72-0.016-1.441,0.03-2.161,0.012
	c-1.064-0.029-2.119-0.331-3.195-0.102c-0.533,0.113-0.702,0.367-0.508,0.855c0.395,0.994,0.786,1.989,1.196,2.976
	c0.605,1.457,1.052,2.952,1.21,4.528c0.021,0.209,0.173,0.402,0.239,0.611c0.459,1.464,0.921,2.929,1.365,4.396
	c0.52,1.722,1.027,3.444,1.53,5.169c0.535,1.831,1.045,3.667,1.592,5.494c0.307,1.024,0.678,2.03,0.996,3.051
	c0.82,2.635,1.664,5.263,2.42,7.914c0.334,1.175,0.536,2.394,0.698,3.604c0.156,1.171,0.23,2.354,0.257,3.537
	c0.041,1.805-0.397,3.525-1.077,5.188c-0.037,0.089-0.075,0.181-0.094,0.272c-0.109,0.522-0.416,0.731-0.951,0.887
	c-1.5,0.433-3.019,0.315-4.531,0.296c-1.353-0.019-2.663-0.376-3.951-0.776c-0.966-0.3-1.925-0.62-2.886-0.937
	c-0.987-0.323-1.981-0.625-2.955-0.984c-1.038-0.384-2.06-0.813-3.082-1.241c-0.773-0.323-1.545-0.655-2.296-1.027
	c-0.414-0.204-0.782-0.501-1.169-0.757c-0.428-0.284-0.735-0.201-0.972,0.245c-0.381,0.718-0.771,1.433-1.161,2.146
	c-0.252,0.46-1.231,0.829-1.684,0.614c-0.93-0.44-1.87-0.851-2.75-1.409c-0.374-0.237-1-0.161-1.494-0.099
	c-0.394,0.051-0.772,0.281-1.139,0.466c-0.181,0.091-0.321,0.263-0.532,0.442c-0.049-0.014-0.201-0.057-0.371-0.104
	c-0.028,0.085-0.065,0.146-0.066,0.209c-0.032,0.812-0.067,1.622-0.086,2.432c-0.035,1.5-0.055,2.999-0.087,4.499
	c-0.021,0.938-0.055,1.874-0.083,2.813c-0.029,0.979,0.016,1.966-0.101,2.934c-0.183,1.507,0.102,2.963,0.265,4.437
	c0.098,0.883,0.171,1.767,0.26,2.648c0.019,0.187,0.056,0.37,0.091,0.6c-0.479,0-0.916,0.003-1.351,0
	c-1.138-0.01-2.2,0.361-3.256,0.707c-1.722,0.559-3.47,0.836-5.279,0.729c-1.503-0.088-3.006-0.163-4.507-0.256
	c-1.181-0.073-2.358-0.178-3.539-0.248c-1.184-0.07-2.369-0.116-3.554-0.172c-1.212-0.057-2.426-0.116-3.639-0.169
	c-1.396-0.059-2.791-0.117-4.187-0.167c-0.993-0.036-1.986-0.067-2.98-0.083c-1.964-0.036-3.929-0.025-5.892-0.1
	c-1.19-0.045-2.375-0.211-3.563-0.321c-0.042-0.005-0.084-0.003-0.127-0.004c-2.203-0.027-4.406-0.081-6.609-0.076
	c-1.213,0.004-2.426,0.099-3.639,0.163c-0.903,0.047-1.809,0.086-2.709,0.177c-0.419,0.041-0.827,0.19-1.24,0.295
	c-0.517,0.13-0.837,0.008-1.103-0.437c-0.466-0.778-0.749-1.607-0.836-2.521C6.381,96.033,6.51,94.93,6.75,93.834
	c0.332-1.517,0.651-3.037,1.059-4.535c0.206-0.76-0.003-1.409-0.277-2.063C7.448,87.054,7.169,86.953,6.92,86.766z M29.381,44.382
	c-0.119-0.554,0.264-1.156-0.373-1.565C28.814,43.144,29.034,44.133,29.381,44.382z"/>
<g>
	<path fill="#FFFFFF" d="M76.779,48.785c0,0.459-0.049,0.902-0.147,1.328c-0.338,1.542-1.184,2.771-2.538,3.689
		c-1.354,0.919-2.969,1.438-4.846,1.559c0.284,1.87,0.595,3.712,0.933,5.526h-7.695c0.84-3.039,1.342-4.854,1.506-5.444
		c0.524-1.924,0.971-4.799,1.342-8.625c-1.081,0.864-1.708,1.41-1.883,1.64l-3.291-6.642c0.186-0.164,0.925-0.443,2.219-0.836
		c1.294-0.394,2.448-0.617,3.463-0.672c0.884-0.043,1.932,0.082,3.144,0.377c3.231,0.787,5.528,2.36,6.893,4.723
		C76.479,46.456,76.779,47.582,76.779,48.785z M73.537,49.177c0-0.251-0.033-0.497-0.098-0.737c-0.219-0.754-0.715-1.392-1.49-1.911
		c-0.775-0.52-1.637-0.795-2.587-0.828c-0.338-0.011-0.622-0.011-0.851,0c-0.088,2.438,0,4.707,0.262,6.806
		c0.96-0.032,1.85-0.219,2.669-0.558C72.838,51.381,73.537,50.458,73.537,49.177z"/>
	<path fill="#FFFFFF" d="M89.386,54.705c-0.011,2.295,0.289,4.34,0.9,6.133l-3.012,0.688c0.033-0.351,0.054-1.022,0.065-2.018
		c-1.015,0.766-2.423,1.147-4.225,1.147c-4.169,0-6.254-1.497-6.254-4.493c0-1.585,0.579-2.902,1.736-3.952
		c1.124-1.039,2.488-1.558,4.093-1.558c1.855,0,3.362,0.552,4.519,1.656c-0.055-0.962-0.104-1.613-0.147-1.952
		c-0.175-1.355-0.786-2.034-1.834-2.034c-0.284,0-0.611,0.044-0.982,0.131c-1.179,0.285-2.516,0.771-4.011,1.459
		c-1.168,0.547-1.829,0.896-1.981,1.05l-1.719-4.953c0.043-0.064,0.748-0.196,2.112-0.394c1.496-0.208,2.849-0.344,4.061-0.41
		c1.375-0.064,2.494,0.011,3.356,0.229c0.644,0.175,1.25,0.524,1.817,1.05c0.567,0.524,0.96,1.104,1.179,1.738
		c0.24,0.743,0.354,1.901,0.344,3.477C89.392,53.737,89.386,54.737,89.386,54.705z M86.685,54.688c0-0.767-0.289-1.361-0.868-1.788
		c-0.524-0.395-1.179-0.59-1.965-0.59c-0.742,0-1.378,0.216-1.907,0.646c-0.53,0.434-0.794,0.981-0.794,1.648
		c0,1.246,0.966,1.869,2.898,1.869C85.806,56.476,86.685,55.88,86.685,54.688z"/>
	<path fill="#FFFFFF" d="M104.057,55.459c0,1.115-0.437,2.062-1.31,2.837c-1.146,0.995-2.893,1.776-5.239,2.346
		c-1.616,0.383-3.258,0.453-4.928,0.214c-1.375-0.328-2.254-0.585-2.636-0.771l2.882-5.147c0.72,0.523,1.124,0.813,1.211,0.869
		c0.699,0.438,1.528,0.76,2.489,0.967c1.31,0.296,2.538,0.246,3.684-0.147c0.95-0.306,1.424-0.743,1.424-1.312
		c0-0.187-0.055-0.377-0.164-0.574c-0.36-0.656-1.201-1.017-2.521-1.082c-0.961,0.044-1.67,0.099-2.128,0.164
		c-1.572-0.022-2.675-0.088-3.308-0.197c-1.07-0.196-1.91-0.656-2.521-1.377c-0.448-0.535-0.644-1.175-0.589-1.918
		c0.065-0.678,0.295-1.257,0.688-1.738c0.644-0.798,1.468-1.416,2.473-1.853c0.513-0.219,1.392-0.481,2.636-0.787
		c1.375-0.339,2.898-0.448,4.568-0.328c1.266,0.175,2.079,0.317,2.439,0.426l-2.439,5.444c-0.36-0.317-0.743-0.579-1.146-0.787
		c-0.797-0.415-1.632-0.716-2.505-0.901c-1.31-0.296-2.429-0.269-3.356,0.081c-0.491,0.187-0.775,0.41-0.851,0.673
		c-0.109,0.131-0.028,0.29,0.246,0.476c0.491,0.328,1.561,0.487,3.209,0.476c0.502,0,1.353,0.033,2.554,0.099
		c0.502,0.021,1.004,0.039,1.506,0.049c0.688,0.088,1.353,0.345,1.998,0.771C103.511,53.146,104.057,54.158,104.057,55.459z"/>
	<path fill="#FFFFFF" d="M118.53,55.459c0,1.115-0.437,2.062-1.31,2.837c-1.146,0.995-2.893,1.776-5.239,2.346
		c-1.616,0.383-3.258,0.453-4.928,0.214c-1.375-0.328-2.254-0.585-2.636-0.771l2.882-5.147c0.72,0.523,1.124,0.813,1.211,0.869
		c0.699,0.438,1.528,0.76,2.489,0.967c1.31,0.296,2.538,0.246,3.684-0.147c0.95-0.306,1.424-0.743,1.424-1.312
		c0-0.187-0.055-0.377-0.164-0.574c-0.36-0.656-1.201-1.017-2.521-1.082c-0.961,0.044-1.67,0.099-2.128,0.164
		c-1.572-0.022-2.675-0.088-3.308-0.197c-1.07-0.196-1.91-0.656-2.521-1.377c-0.448-0.535-0.644-1.175-0.589-1.918
		c0.065-0.678,0.295-1.257,0.688-1.738c0.644-0.798,1.468-1.416,2.473-1.853c0.513-0.219,1.392-0.481,2.636-0.787
		c1.375-0.339,2.898-0.448,4.568-0.328c1.266,0.175,2.079,0.317,2.439,0.426l-2.439,5.444c-0.36-0.317-0.743-0.579-1.146-0.787
		c-0.797-0.415-1.632-0.716-2.505-0.901c-1.31-0.296-2.429-0.269-3.356,0.081c-0.491,0.187-0.775,0.41-0.851,0.673
		c-0.109,0.131-0.028,0.29,0.246,0.476c0.491,0.328,1.561,0.487,3.209,0.476c0.502,0,1.353,0.033,2.554,0.099
		c0.502,0.021,1.004,0.039,1.506,0.049c0.688,0.088,1.353,0.345,1.998,0.771C117.984,53.146,118.53,54.158,118.53,55.459z"/>
	<path fill="#FFFFFF" d="M118.825,46.718c1.189,0.187,2.167,0.263,2.931,0.229c0.895-0.076,1.79-0.153,2.686-0.229
		c-0.415,5.915-0.699,10.37-0.852,13.365l-2.996,0.345C119.971,54.339,119.381,49.769,118.825,46.718z M118.825,46.718
		c1.189,0.187,2.167,0.263,2.931,0.229c0.895-0.076,1.79-0.153,2.686-0.229c-0.415,5.915-0.699,10.37-0.852,13.365l-2.996,0.345
		C119.971,54.339,119.381,49.769,118.825,46.718z M123.589,40.618c0,1.465-0.649,2.16-1.948,2.083
		c-1.168-0.066-1.752-0.798-1.752-2.198c0-1.606,0.6-2.411,1.801-2.411C122.956,38.092,123.589,38.935,123.589,40.618z"/>
	<path fill="#FFFFFF" d="M136.458,47.473c1.233,1.061,1.851,2.606,1.851,4.641c0,2.602-0.698,4.641-2.097,6.117
		c-1.254,1.334-2.832,2.001-4.73,2.001c-1.791,0-3.313-0.729-4.568-2.183c-1.288-1.509-1.932-3.384-1.932-5.625
		c0-4.273,2.325-6.411,6.975-6.411C133.833,46.013,135.335,46.5,136.458,47.473z M133.167,56.558
		c0.654-0.699,0.982-1.661,0.982-2.887c0-1.924-0.982-2.887-2.947-2.887c-2.14,0-3.209,1.011-3.209,3.034
		c0,1.061,0.292,1.939,0.876,2.64c0.583,0.7,1.291,1.05,2.12,1.05C131.863,57.509,132.589,57.191,133.167,56.558z"/>
	<path fill="#FFFFFF" d="M153.47,52.589c0.132,0.831,0.257,1.662,0.377,2.493c0.076,0.438,0.142,1.399,0.195,2.886
		c0.056,1.598,0.027,2.472-0.082,2.624l-5.238-0.573c0.186-0.524,0.371-1.05,0.557-1.574c0.404-1.333,0.678-2.591,0.819-3.771
		c0.021-0.208,0.032-0.415,0.032-0.623c0-0.994-0.316-2.083-0.949-3.264c-0.12-0.208-0.292-0.382-0.516-0.525
		c-0.226-0.142-0.474-0.245-0.746-0.312c-0.502-0.109-0.998-0.049-1.489,0.181c-0.558,0.251-1.005,0.547-1.343,0.886
		c-0.207,0.196-0.447,0.498-0.721,0.901c-0.044,0.59-0.066,1.191-0.066,1.805c0,1.52,0.158,3.076,0.477,4.674
		c0.294,1.498,0.447,2.159,0.458,1.983l-5.96-0.196c0.076,0.088,0.328-0.591,0.754-2.033c0.469-1.629,0.703-3.077,0.703-4.347
		c0-1.268-0.245-2.263-0.736-2.984c-0.25-0.47-0.617-1.061-1.097-1.771c-0.448-0.667-0.698-1.011-0.754-1.032l6.224-2.165
		c0.141,0.055,0.223,1.011,0.244,2.869c0.775-0.611,1.615-1.011,2.521-1.196c1.015-0.22,2.02-0.071,3.013,0.442
		c1.267,0.656,2.052,1.264,2.356,1.82C152.94,50.572,153.263,51.507,153.47,52.589z"/>
	<path fill="#FFFFFF" d="M168.026,59.001c-0.011,0.065-0.437,0.301-1.276,0.705c-1.092,0.536-2.223,0.863-3.39,0.984
		c-0.646,0.064-1.338,0.064-2.08,0c-0.797-0.065-1.55-0.246-2.259-0.541c-1.277-0.536-2.305-1.383-3.078-2.542
		c-0.949-1.41-1.431-2.969-1.441-4.674c-0.01-2.001,0.617-3.654,1.884-4.961s2.926-1.905,4.978-1.796
		c0.852-0.032,1.721,0.241,2.604,0.82c0.722,0.481,1.277,1.018,1.671,1.607c0.458,0.48,0.688,1.006,0.688,1.575
		c0.01,0.579-0.22,1.093-0.688,1.542c-0.404,0.316-0.798,0.535-1.179,0.655c-0.316,0.087-0.635,0.175-0.951,0.263
		c-0.828,0.186-1.865,0.36-3.109,0.524c-0.786,0.109-1.6,0.208-2.439,0.295c0.438,1.302,1.195,2.089,2.275,2.361
		c0.316,0.077,0.66,0.094,1.031,0.05c0.47-0.055,0.857-0.137,1.163-0.246c0.534-0.175,1.228-0.52,2.079-1.033
		c0.742-0.447,1.113-0.678,1.113-0.688L168.026,59.001z M157.858,51.13c1.507-0.099,2.871-0.257,4.095-0.476
		c0.533-0.087,0.998-0.187,1.392-0.295c0.239-0.065,0.44-0.131,0.604-0.197c-0.044-0.043-0.082-0.082-0.113-0.115l-0.065-0.064
		c-0.383-0.481-0.748-0.82-1.099-1.018c-0.402-0.218-0.846-0.321-1.325-0.312c-0.589,0.011-1.136,0.109-1.638,0.295
		C158.737,49.288,158.121,50.015,157.858,51.13z"/>
</g>
<g>
	<path fill="#FFFFFF" d="M94.327,84.939c-0.021,4.313,0.561,8.155,1.747,11.524l-5.843,1.294c0.063-0.656,0.105-1.921,0.127-3.79
		c-1.969,1.438-4.7,2.157-8.193,2.157c-8.087,0-12.13-2.813-12.13-8.442c0-2.979,1.122-5.454,3.366-7.428
		c2.181-1.95,4.827-2.928,7.939-2.928c3.599,0,6.521,1.038,8.765,3.112c-0.106-1.809-0.202-3.029-0.286-3.667
		c-0.339-2.547-1.524-3.82-3.557-3.82c-0.55,0-1.186,0.082-1.905,0.246c-2.286,0.534-4.88,1.448-7.78,2.742
		c-2.266,1.027-3.546,1.686-3.842,1.973l-3.334-9.307c0.084-0.123,1.45-0.369,4.097-0.739c2.9-0.39,5.525-0.647,7.875-0.771
		c2.667-0.123,4.837,0.021,6.51,0.432c1.249,0.329,2.424,0.986,3.525,1.972c1.101,0.986,1.863,2.075,2.287,3.268
		c0.465,1.396,0.688,3.574,0.667,6.532C94.337,83.122,94.327,85.001,94.327,84.939z M89.087,84.909c0-1.438-0.562-2.558-1.683-3.359
		c-1.016-0.738-2.287-1.108-3.811-1.108c-1.44,0-2.673,0.406-3.7,1.218c-1.027,0.813-1.54,1.844-1.54,3.097
		c0,2.343,1.874,3.514,5.621,3.514C87.383,88.268,89.087,87.148,89.087,84.909z"/>
	<path fill="#FFFFFF" d="M120.017,70.888c1.313,0.555,1.926,0.874,1.842,0.955l-6.001,6.965c-0.847-1.438-1.514-2.331-2.001-2.682
		c-0.614-0.452-1.333-0.679-2.159-0.679c-1.8,0-3.43,0.854-4.89,2.559c-0.254,6.122,0.635,11.771,2.667,16.948l-7.685,0.832
		c-0.487-5.259-1.09-9.479-1.81-12.665c-0.317-1.313-0.635-2.373-0.953-3.175c-0.974-3.513-2.266-6.646-3.874-9.398l12.67-2.249
		l-0.413,4.007c0.974-0.638,1.99-1.15,3.049-1.541c1.735-0.616,3.672-0.854,5.811-0.709
		C117.307,70.015,118.556,70.292,120.017,70.888z"/>
	<path fill="#FFFFFF" d="M147.644,84.939c-0.021,4.313,0.561,8.155,1.746,11.524l-5.842,1.294c0.063-0.656,0.104-1.921,0.127-3.79
		c-1.969,1.438-4.701,2.157-8.193,2.157c-8.087,0-12.13-2.813-12.13-8.442c0-2.979,1.122-5.454,3.366-7.428
		c2.181-1.95,4.827-2.928,7.939-2.928c3.598,0,6.521,1.038,8.764,3.112c-0.106-1.809-0.2-3.029-0.286-3.667
		c-0.339-2.547-1.523-3.82-3.558-3.82c-0.551,0-1.186,0.082-1.904,0.246c-2.286,0.534-4.879,1.448-7.779,2.742
		c-2.266,1.027-3.546,1.686-3.842,1.973l-3.334-9.307c0.084-0.123,1.45-0.369,4.097-0.739c2.9-0.39,5.524-0.647,7.875-0.771
		c2.667-0.123,4.837,0.021,6.511,0.432c1.248,0.329,2.424,0.986,3.523,1.972c1.102,0.986,1.863,2.075,2.287,3.268
		c0.465,1.396,0.688,3.574,0.666,6.532C147.653,83.122,147.644,85.001,147.644,84.939z M142.403,84.909
		c0-1.438-0.562-2.558-1.682-3.359c-1.019-0.738-2.287-1.108-3.812-1.108c-1.439,0-2.673,0.406-3.699,1.218
		c-1.027,0.813-1.541,1.844-1.541,3.097c0,2.343,1.875,3.514,5.621,3.514C140.701,88.268,142.403,87.148,142.403,84.909z"/>
	<path fill="#FFFFFF" d="M170.889,71.351c2.394,1.991,3.589,4.898,3.589,8.721c0,4.89-1.355,8.721-4.064,11.494
		c-2.436,2.506-5.494,3.759-9.178,3.759c-3.473,0-6.426-1.365-8.859-4.098c-2.498-2.835-3.746-6.358-3.746-10.57
		c0-8.032,4.509-12.049,13.527-12.049C165.796,68.607,168.708,69.522,170.889,71.351z M164.505,88.422
		c1.271-1.313,1.906-3.122,1.906-5.424c0-3.615-1.906-5.423-5.717-5.423c-4.148,0-6.224,1.9-6.224,5.7
		c0,1.993,0.565,3.646,1.698,4.962c1.133,1.314,2.504,1.972,4.111,1.972C161.977,90.209,163.384,89.613,164.505,88.422z"/>
</g>
<g>
	<path fill="#FFFFFF" d="M254.287,94.014c-0.021,0.123-0.847,0.564-2.477,1.324c-2.117,1.008-4.309,1.622-6.573,1.85
		c-1.249,0.123-2.593,0.123-4.032,0c-1.547-0.123-3.007-0.462-4.383-1.018c-2.477-1.007-4.467-2.599-5.971-4.775
		c-1.842-2.65-2.773-5.578-2.794-8.783c-0.021-3.759,1.196-6.866,3.651-9.321c2.455-2.454,5.674-3.579,9.653-3.374
		c1.651-0.062,3.334,0.452,5.05,1.541c1.396,0.904,2.477,1.91,3.238,3.021c0.891,0.903,1.333,1.891,1.333,2.958
		c0.021,1.09-0.424,2.055-1.333,2.896c-0.783,0.598-1.546,1.007-2.286,1.233c-0.614,0.164-1.229,0.328-1.842,0.492
		c-1.608,0.35-3.621,0.679-6.033,0.985c-1.524,0.206-3.102,0.392-4.731,0.556c0.847,2.444,2.318,3.925,4.414,4.438
		c0.613,0.146,1.281,0.175,2,0.093c0.91-0.103,1.662-0.257,2.256-0.463c1.037-0.328,2.381-0.975,4.031-1.94
		c1.439-0.843,2.16-1.273,2.16-1.294L254.287,94.014z M234.567,79.222c2.922-0.186,5.567-0.482,7.938-0.895
		c1.037-0.164,1.938-0.349,2.699-0.555c0.465-0.123,0.856-0.246,1.176-0.369c-0.086-0.082-0.159-0.154-0.223-0.216l-0.128-0.123
		c-0.741-0.904-1.45-1.541-2.127-1.911c-0.784-0.41-1.642-0.605-2.571-0.585c-1.145,0.021-2.203,0.205-3.177,0.555
		C236.271,75.76,235.076,77.127,234.567,79.222z"/>
</g>
<g>
	<path fill="#FFFFFF" d="M57.131,80.234l9.944,7.314L49.907,99.574c-2.596-6.675-4.285-11.019-5.066-13.03
		c-2.533-6.521-6.52-13.076-11.961-19.66c-2.033,2.286-3.863,4.558-5.488,6.813c1.126,9.571,2.924,17.069,5.395,22.495L13.18,96.054
		c2.282-7.712,3.846-15.089,4.69-22.13c0.344-2.927,0.547-5.67,0.61-8.229c-0.281-8.81-1.533-17.815-3.752-27.021L31.66,38.81
		c-2.001,8.87-3.502,16.292-4.503,22.267c5.847-7.346,9.804-13.168,11.868-17.466l5.207-10.927l15.621,13.898
		c-6.098,3.812-10.085,6.28-11.962,7.406c-3.221,1.982-6.349,4.375-9.381,7.179C46.138,70.344,52.346,76.698,57.131,80.234z"/>
</g>
<g>
	<path fill="#FFFFFF" d="M216.503,71.919l11.369,4.813l-13.916,15.675c-4.07-5.892-6.721-9.726-7.945-11.502
		c-3.977-5.758-9.373-11.209-16.192-16.354c-1.446,2.695-2.7,5.328-3.76,7.899c3.313,9.05,6.799,15.927,10.46,20.633l-19.105,4.409
		c0.434-8.03,0.246-15.568-0.564-22.613c-0.344-2.927-0.781-5.643-1.313-8.147c-2.314-8.504-5.619-16.977-9.912-25.416l16.506-3.79
		c0.107,9.092,0.367,16.66,0.777,22.704c3.986-8.501,6.486-15.082,7.498-19.741l2.533-11.836l18.416,9.9
		c-5.049,5.12-8.355,8.446-9.92,9.979c-2.675,2.674-5.162,5.727-7.463,9.156C203.519,64.844,211.03,69.588,216.503,71.919z"/>
</g>
</svg>
