<?xml version="1.0" encoding="utf-8"?>
<!-- Generator: Adobe Illustrator 16.0.0, SVG Export Plug-In . SVG Version: 6.00 Build 0)  -->
<!DOCTYPE svg PUBLIC "-//W3C//DTD SVG 1.1//EN" "http://www.w3.org/Graphics/SVG/1.1/DTD/svg11.dtd">
<svg version="1.1" id="Layer_1" xmlns="http://www.w3.org/2000/svg" xmlns:xlink="http://www.w3.org/1999/xlink" x="0px" y="0px"
	 width="612px" height="792px" viewBox="0 0 612 792" enable-background="new 0 0 612 792" xml:space="preserve">
<g>
	<path fill-rule="evenodd" clip-rule="evenodd" fill="#FFFFFF" d="M307.266,364.972c63.637,0.001,127.273-0.027,190.91,0.018
		c19.07,0.014,33.419,14.751,32.738,33.393c-0.589,16.125-13.944,29.686-30.086,30.532c-1.164,0.062-2.332,0.048-3.498,0.048
		c-126.94,0.002-253.881,0.009-380.822-0.007c-18.634-0.002-32.964-13.173-33.493-30.653c-0.553-18.294,13.481-33.126,31.84-33.287
		c19.656-0.172,39.315-0.042,58.972-0.043C218.307,364.972,262.786,364.972,307.266,364.972z"/>
	<path fill-rule="evenodd" clip-rule="evenodd" fill="#FFFFFF" d="M306.971,556.946c-63.806,0-127.611,0.049-191.417-0.039
		c-13.571-0.019-23.76-6.264-29.5-18.578c-5.658-12.14-3.861-23.793,4.645-34.089c6.416-7.767,14.997-11.299,25.083-11.293
		c45.48,0.021,90.961,0.008,136.441,0.008c81.965,0,163.93-0.02,245.894,0.018c18.317,0.008,32.553,13.698,32.815,31.334
		c0.269,18-13.851,32.541-32.043,32.604c-34.484,0.119-68.971,0.036-103.456,0.037C365.945,556.947,336.458,556.947,306.971,556.946
		z"/>
	<path fill-rule="evenodd" clip-rule="evenodd" fill="#FFFFFF" d="M307.277,236.988c63.636,0.001,127.271-0.028,190.905,0.018
		c19.066,0.015,33.414,14.757,32.731,33.397c-0.592,16.124-13.949,29.683-30.09,30.527c-1.163,0.062-2.332,0.048-3.498,0.048
		c-126.77,0.002-253.541,0.008-380.311-0.006c-16.399-0.001-29.235-9.311-32.945-23.773c-5.238-20.418,9.622-39.965,30.802-40.164
		c20.655-0.194,41.313-0.046,61.969-0.047C220.32,236.987,263.799,236.988,307.277,236.988z"/>
</g>
</svg>
